<?xml version="1.0" encoding="iso-8859-1"?>
<!-- Uploaded to: SVG Repo, www.svgrepo.com, Generator: SVG Repo Mixer Tools -->
<svg fill="#000000" height="800px" width="800px" version="1.1" id="Layer_1" xmlns="http://www.w3.org/2000/svg" xmlns:xlink="http://www.w3.org/1999/xlink" 
	 viewBox="0 0 512 512" xml:space="preserve">
<g>
	<g>
		<path d="M387.341,265.461l-18.072-196.15l17.42-17.42c7.084-7.084,7.084-18.612,0-25.696l-7.341-7.343
			c-7.085-7.084-18.613-7.084-25.698,0l-17.42,17.42L140.081,18.201L121.881,0l-5.506,5.506
			c-15.023,15.022-12.945,43.151,6.012,81.344c10.593,21.344,25.815,44.376,44.414,67.458l-7.002,7.002
			c-3.435,3.435-5.326,7.999-5.323,12.854c0.001,4.851,1.892,9.412,5.323,12.843l5.703,5.702
			c-3.373,5.397-5.186,11.636-5.186,18.159c0,5.436,1.263,10.674,3.633,15.394v241.089h-36.769L111.233,512h146.699l-15.945-44.648
			H205.22V243.578c2.671-0.858,5.223-2.043,7.61-3.535l5.703,5.702c3.431,3.432,7.992,5.321,12.843,5.323c0.002,0,0.004,0,0.006,0
			c4.852,0,9.415-1.891,12.848-5.323l7.002-7.002c23.083,18.599,46.115,33.82,67.457,44.414
			c21.37,10.606,39.588,15.929,54.123,15.929c11.443,0,20.604-3.299,27.223-9.917l5.506-5.506L387.341,265.461z M370.112,248.232
			L269.217,147.337l56.901-56.901l11.013,11.012l17.818-17.816L370.112,248.232z M364.664,29.865c0.661-0.661,1.434-0.76,1.836-0.76
			c0.402,0,1.174,0.099,1.836,0.759l7.341,7.343c1.013,1.012,1.013,2.659,0,3.672l-14.496,14.496l-11.012-11.012L364.664,29.865z
			 M339.154,55.374l11.012,11.013L337.13,79.424l-11.013-11.012L339.154,55.374z M321.909,50.593l-17.818,17.818l11.012,11.012
			l-56.9,56.901L157.309,35.428L321.909,50.593z M231.011,482.927l4.82,13.498H133.333l4.821-13.498H231.011z M181.39,224.152
			c-5.358-5.359-6.778-13.17-4.297-19.847l24.144,24.144C194.56,230.931,186.748,229.51,181.39,224.152z M189.645,244.864v222.489
			h-10.124v-0.001V241.718C182.698,243.282,186.104,244.348,189.645,244.864z M233.217,234.731c-1.012,1.012-2.659,1.011-3.672,0
			l-58.735-58.735c-0.662-0.662-0.761-1.434-0.761-1.836c0-0.49,0.132-1.205,0.761-1.836l5.985-5.985
			c9.341,10.908,19.386,21.763,30.016,32.391c10.629,10.629,21.484,20.675,32.391,30.016L233.217,234.731z M217.823,187.718
			c-35.832-35.832-64.771-74.113-81.487-107.792C124.202,55.48,119.685,35.319,123.354,23.5l258.72,258.72
			C355.585,290.655,287.555,257.451,217.823,187.718z"/>
	</g>
</g>
</svg>